<svg xmlns="http://www.w3.org/2000/svg" viewBox="0 0 1600 1000" fill="none" role="img" aria-label="Huerta comunitaria">
  <rect width="1600" height="1000" fill="#FAF8F3"/>
  <rect width="1600" height="1000" fill="url(#sky)"/>
  <ellipse cx="800" cy="920" rx="900" ry="280" fill="#46633D" opacity="0.08"/>
  <path d="M0 680 Q400 620 800 660 T1600 640 V1000 H0 Z" fill="#6D8F58" opacity="0.18"/>
  <path d="M0 740 Q500 700 900 730 T1600 710 V1000 H0 Z" fill="#46633D" opacity="0.12"/>
  <g opacity="0.85">
    <ellipse cx="420" cy="580" rx="180" ry="90" fill="#6D8F58" opacity="0.35"/>
    <ellipse cx="520" cy="560" rx="140" ry="70" fill="#46633D" opacity="0.25"/>
    <ellipse cx="1100" cy="590" rx="200" ry="95" fill="#6D8F58" opacity="0.3"/>
    <ellipse cx="980" cy="565" rx="150" ry="75" fill="#46633D" opacity="0.2"/>
    <ellipse cx="760" cy="610" rx="220" ry="100" fill="#6D8F58" opacity="0.28"/>
  </g>
  <g stroke="#46633D" stroke-width="2.5" stroke-linecap="round" opacity="0.5">
    <path d="M320 680 V520 M320 560 Q320 480 280 420"/>
    <path d="M1280 690 V530 M1280 570 Q1280 490 1320 430"/>
    <path d="M800 700 V480 M800 520 Q760 440 720 380 M800 520 Q840 440 880 380"/>
  </g>
  <circle cx="280" cy="415" r="8" fill="#C98763" opacity="0.7"/>
  <circle cx="1320" cy="425" r="8" fill="#C98763" opacity="0.7"/>
  <circle cx="720" cy="375" r="7" fill="#C98763" opacity="0.6"/>
  <circle cx="880" cy="375" r="7" fill="#C98763" opacity="0.6"/>
  <defs>
    <linearGradient id="sky" x1="800" y1="0" x2="800" y2="1000" gradientUnits="userSpaceOnUse">
      <stop stop-color="#FAF8F3"/>
      <stop offset="0.55" stop-color="#F3F0E8"/>
      <stop offset="1" stop-color="#E8EDE3"/>
    </linearGradient>
  </defs>
</svg>
